<svg width="44" height="24" viewBox="0 0 44 24" fill="none" xmlns="http://www.w3.org/2000/svg">
<g opacity="0.2">
<path d="M16.0892 12.4663L10.7487 17.8068C10.4912 18.0644 10.0736 18.0644 9.81605 17.8068L9.19317 17.1839C8.93604 16.9268 8.93555 16.5101 9.19207 16.2524L13.4245 12L9.19207 7.74765C8.93555 7.48991 8.93604 7.07318 9.19317 6.81606L9.81605 6.19318C10.0736 5.93561 10.4912 5.93561 10.7487 6.19318L16.0892 11.5337C16.3468 11.7912 16.3468 12.2088 16.0892 12.4663Z" fill="white"/>
</g>
<g opacity="0.6">
<path d="M26.0892 12.4663L20.7487 17.8068C20.4912 18.0644 20.0736 18.0644 19.8161 17.8068L19.1932 17.1839C18.936 16.9268 18.9355 16.5101 19.1921 16.2524L23.4245 12L19.1921 7.74765C18.9355 7.48991 18.936 7.07318 19.1932 6.81606L19.8161 6.19318C20.0736 5.93561 20.4912 5.93561 20.7487 6.19318L26.0892 11.5337C26.3468 11.7912 26.3468 12.2088 26.0892 12.4663Z" fill="white"/>
</g>
<path d="M36.0892 12.4663L30.7487 17.8068C30.4912 18.0644 30.0736 18.0644 29.8161 17.8068L29.1932 17.1839C28.936 16.9268 28.9355 16.5101 29.1921 16.2524L33.4245 12L29.1921 7.74765C28.9355 7.48991 28.936 7.07318 29.1932 6.81606L29.8161 6.19318C30.0736 5.93561 30.4912 5.93561 30.7487 6.19318L36.0892 11.5337C36.3468 11.7912 36.3468 12.2088 36.0892 12.4663Z" fill="white"/>
</svg>
